<?xml version="1.0" encoding="UTF-8" standalone="no"?>
<!DOCTYPE svg PUBLIC "-//W3C//DTD SVG 1.1//EN" "http://www.w3.org/Graphics/SVG/1.1/DTD/svg11.dtd">
<svg width="100%" height="100%" viewBox="0 0 400 200" version="1.1" xmlns="http://www.w3.org/2000/svg"
    xmlns:xlink="http://www.w3.org/1999/xlink" xml:space="preserve" xmlns:serif="http://www.serif.com/"
    style="fill-rule:evenodd;clip-rule:evenodd;stroke-linejoin:round;stroke-miterlimit:2;">
    <style>
        @media (prefers-color-scheme: dark) {
            path {
                fill: #FDF6E3 !important;
            }
        }
    </style>
    <path
        d="M200,29.114L176.121,17.174C170.867,14.547 164.629,14.828 159.632,17.916C154.636,21.004 151.595,26.459 151.595,32.332C151.595,46.02 151.595,63.085 151.595,76.773C151.595,82.646 154.636,88.101 159.632,91.189C164.629,94.276 170.867,94.557 176.121,91.931L200,79.991L223.879,91.931C229.133,94.557 235.371,94.276 240.368,91.189C245.364,88.101 248.405,82.646 248.405,76.773C248.405,63.085 248.405,46.02 248.405,32.332C248.405,26.459 245.364,21.004 240.368,17.916C235.371,14.828 229.133,14.547 223.879,17.174L200,29.114ZM204.472,77.755L225.668,88.353C229.681,90.36 234.448,90.145 238.265,87.786C242.082,85.427 244.405,81.26 244.405,76.773C244.405,63.085 244.405,46.02 244.405,32.332C244.405,27.845 242.082,23.678 238.265,21.319C234.448,18.96 229.681,18.745 225.668,20.752L204.472,31.35L220.561,39.394L220.561,39.394C226.303,42.265 229.93,48.133 229.93,54.552C229.93,60.971 226.303,66.84 220.561,69.71L204.472,77.755ZM195.528,31.35L174.332,20.752C170.319,18.745 165.552,18.96 161.735,21.319C157.918,23.678 155.595,27.845 155.595,32.332C155.595,46.02 155.595,63.085 155.595,76.773C155.595,81.26 157.918,85.427 161.735,87.786C165.552,90.145 170.319,90.36 174.332,88.353L195.528,77.755L179.439,69.71L179.439,69.71C173.697,66.84 170.07,60.971 170.07,54.552C170.07,48.133 173.697,42.265 179.439,39.394L195.528,31.35ZM200,33.586L218.773,42.972C223.159,45.165 225.93,49.648 225.93,54.552C225.93,59.456 223.159,63.939 218.773,66.133L200,75.519L181.227,66.133C176.841,63.939 174.07,59.456 174.07,54.552C174.07,49.648 176.841,45.165 181.227,42.972L200,33.586Z"
        style="fill:rgb(0,43,54);" />
    <path
        d="M53.412,176.554C45.196,176.554 42.927,172.172 42.927,167.634L37.45,167.634L37.45,167.947C37.45,174.285 41.675,181.17 53.412,181.17C63.661,181.17 69.373,176.163 69.373,168.964L69.373,168.573C69.373,160.984 64.913,158.01 54.507,157.15C45.509,156.446 43.475,154.098 43.475,149.795C43.475,145.179 47.152,142.597 53.412,142.597C61.158,142.597 63.505,146.274 63.505,152.22L68.904,152.22L68.904,151.907C68.904,143.77 64.757,137.98 53.412,137.98C43.709,137.98 37.998,142.597 37.998,149.795L37.998,150.264C37.998,156.446 41.206,160.358 52.394,161.297C60.453,162.001 63.74,163.331 63.74,168.964C63.74,173.581 60.141,176.554 53.412,176.554ZM87.369,138.841L87.369,127.104L81.892,127.104L81.892,138.841L75.32,138.841L75.32,143.77L81.892,143.77L81.892,168.808C81.892,177.806 86.978,181.17 94.02,181.17C97.306,181.17 99.184,180.544 99.81,180.31L99.81,175.537C99.184,175.85 97.071,176.241 95.35,176.241C90.108,176.241 87.369,174.676 87.369,168.104L87.369,143.77L100.592,143.77L100.592,138.841L87.369,138.841ZM293.227,138.841L293.227,127.104L287.75,127.104L287.75,138.841L281.177,138.841L281.177,143.77L287.75,143.77L287.75,168.808C287.75,177.806 292.835,181.17 299.877,181.17C303.163,181.17 305.041,180.544 305.667,180.31L305.667,175.537C305.041,175.85 302.929,176.241 301.207,176.241C295.965,176.241 293.227,174.676 293.227,168.104L293.227,143.77L306.45,143.77L306.45,138.841L293.227,138.841ZM248.863,161.844L248.863,158.715C248.863,147.213 243.621,137.98 231.493,137.98C219.365,137.98 213.966,147.213 213.966,158.715L213.966,160.436C213.966,171.938 219.365,181.17 231.884,181.17C243.542,181.17 248.863,173.737 248.863,167.321L248.863,167.008L243.621,167.008C243.621,171.468 240.178,176.554 231.884,176.554C223.59,176.554 219.756,170.921 219.522,161.844L248.863,161.844ZM314.822,138.841L314.822,167.869C314.822,175.615 319.125,181.17 327.419,181.17C334.461,181.17 338.921,178.197 341.268,174.52L342.129,180.31L346.667,180.31L346.197,168.573L346.197,138.841L340.72,138.841L340.72,169.825C338.999,172.564 335.791,176.241 329.218,176.241C323.741,176.241 320.22,173.346 320.22,167.087L320.22,138.841L314.822,138.841ZM357.073,180.31L362.55,180.31L362.55,117.715L357.073,117.715L357.073,180.31ZM135.958,180.31L141.435,180.31L141.435,138.841L135.958,138.841L135.958,180.31ZM125.786,137.98C120.231,137.98 116.397,140.875 114.206,144.318L113.424,138.841L108.886,138.841L109.355,150.577L109.355,180.31L114.832,180.31L114.832,149.56C116.554,146.822 119.605,143.301 125.865,143.301L126.96,143.301L126.96,138.058C126.882,138.058 126.334,137.98 125.786,137.98ZM274.292,137.98C268.737,137.98 264.903,140.875 262.712,144.318L261.929,138.841L257.391,138.841L257.861,150.577L257.861,180.31L263.338,180.31L263.338,149.56C265.059,146.822 268.111,143.301 274.37,143.301L275.465,143.301L275.465,138.058C275.387,138.058 274.839,137.98 274.292,137.98ZM205.36,180.31L205.36,150.264C205.36,142.44 201.213,137.98 193.78,137.98C187.051,137.98 182.904,141.11 180.713,144.866C179.148,140.406 175.471,137.98 169.994,137.98C163.5,137.98 159.431,140.953 157.162,144.474L156.379,138.841L151.841,138.841L152.311,150.577L152.311,180.31L157.788,180.31L157.788,149.169C159.509,146.509 162.326,142.909 168.116,142.909C172.811,142.909 176.097,144.709 176.097,151.047L176.097,180.31L181.574,180.31L181.574,149.169C183.295,146.509 186.112,142.909 191.902,142.909C196.596,142.909 199.883,144.709 199.883,151.047L199.883,180.31L205.36,180.31ZM231.415,142.597C239.317,142.597 242.995,148.308 243.308,157.306L219.522,157.306C219.756,148.308 223.59,142.597 231.415,142.597ZM142.217,122.019L135.176,122.019L135.176,129.06L142.217,129.06L142.217,122.019ZM340.407,122.019L333.6,122.019L333.6,128.904L340.407,128.904L340.407,122.019ZM327.341,122.019L320.533,122.019L320.533,128.904L327.341,128.904L327.341,122.019Z"
        style="fill:rgb(0,43,54);fill-rule:nonzero;" />
</svg>