<svg xmlns="http://www.w3.org/2000/svg" xmlns:xlink="http://www.w3.org/1999/xlink" xml:space="preserve" style="fill-rule:evenodd;clip-rule:evenodd;stroke-linejoin:round;stroke-miterlimit:2" viewBox="0 0 600 200">
	<style>
		@media (prefers-color-scheme: dark) {
			path {
				fill: #FDF6E3 !important;
			}
		}
	</style>
	<defs>
		<path class="emblem" id="reuse-0" d="M341.393 128.936c-8.477 16.953-20.495 40.991-28.377 56.754-2.114 4.229-1.888 9.251.597 13.273 2.486 4.022 6.877 6.47 11.605 6.47h56.754c4.728 0 9.119-2.448 11.604-6.47 2.486-4.022 2.712-9.044.598-13.273-7.882-15.763-19.901-39.801-28.377-56.754-2.311-4.622-7.035-7.541-12.202-7.541s-9.891 2.919-12.202 7.541Zm4.472 2.236c1.464-2.928 4.456-4.777 7.73-4.777 3.273 0 6.266 1.849 7.729 4.777 8.477 16.953 20.496 40.991 28.377 56.754 1.34 2.679 1.197 5.86-.378 8.408-1.574 2.548-4.356 4.099-7.351 4.099h-56.754c-2.995 0-5.777-1.551-7.352-4.099-1.574-2.548-1.717-5.729-.378-8.408 7.882-15.763 19.9-39.801 28.377-56.754Z" style="fill:#002b36" />
	</defs>
	<path d="m165.857 147.64-4.238 1.125c-1.05-3.15-2.72-5.645-5.008-7.483-2.288-1.837-5.407-2.756-9.358-2.756-4.226 0-7.683 1.05-10.371 3.15-2.688 2.101-4.032 4.839-4.032 8.215 0 5.426 3.701 9.052 11.102 10.877l8.852 2.213c9.152 2.276 13.728 7.214 13.728 14.816 0 3.175-.862 5.989-2.588 8.439-1.725 2.451-4.113 4.364-7.164 5.739-3.05 1.375-6.576 2.063-10.577 2.063-5.351 0-9.752-1.263-13.203-3.788-3.451-2.526-5.676-6.127-6.677-10.803l4.389-1.125c1.675 7.677 6.826 11.515 15.453 11.515 4.701 0 8.496-1.113 11.384-3.338 2.888-2.226 4.332-5.076 4.332-8.552 0-5.476-3.425-9.052-10.277-10.728l-9.189-2.25c-4.702-1.15-8.227-3.001-10.578-5.551-2.35-2.551-3.526-5.677-3.526-9.377 0-3.101.813-5.827 2.438-8.177 1.626-2.351 3.864-4.189 6.714-5.514 2.851-1.325 6.114-1.988 9.79-1.988 4.876 0 8.852 1.15 11.928 3.451 3.075 2.3 5.301 5.576 6.676 9.827ZM202.728 135.225v4.088h-12.115v39.909c0 3.476.987 6.033 2.963 7.671 1.975 1.637 4.238 2.456 6.789 2.456.825 0 1.544-.068 2.157-.206.612-.137 1.194-.294 1.744-.469l1.125 4.164c-.7.25-1.469.468-2.307.656-.837.188-1.844.281-3.019.281-2.401 0-4.664-.537-6.789-1.613-2.126-1.075-3.857-2.631-5.195-4.669s-2.007-4.52-2.007-7.446v-40.734h-8.514v-4.088h8.514v-13.803h4.539v13.803h12.115ZM219.682 192.838v-57.613h4.463v9.002h.413c1.25-2.951 3.363-5.32 6.339-7.108 2.975-1.788 6.363-2.682 10.164-2.682h1.219c.388 0 .757.013 1.107.038v4.613c-.3-.05-.657-.1-1.069-.15-.413-.05-.919-.075-1.519-.075-3.201 0-6.045.688-8.533 2.063-2.488 1.375-4.445 3.27-5.87 5.683-1.426 2.413-2.138 5.17-2.138 8.27v37.959h-4.576ZM255.915 192.838v-57.613h4.538v57.613h-4.538Zm2.288-67.815c-1.001 0-1.87-.35-2.607-1.051-.738-.7-1.107-1.55-1.107-2.55 0-1 .369-1.851 1.107-2.551.737-.7 1.606-1.05 2.607-1.05 1.025 0 1.894.35 2.606 1.05.713.7 1.069 1.551 1.069 2.551 0 1-.356 1.85-1.069 2.55-.712.701-1.581 1.051-2.606 1.051ZM279.657 192.838v-57.613h4.464v8.702h.45c1.1-2.901 3.001-5.201 5.701-6.902 2.701-1.7 5.952-2.55 9.752-2.55 4.176 0 7.546 1 10.109 3 2.563 2.001 4.407 4.714 5.532 8.14h.413c1.125-3.401 3.144-6.108 6.057-8.121 2.914-2.013 6.508-3.019 10.784-3.019 5.576 0 9.834 1.756 12.772 5.27 2.938 3.513 4.407 8.32 4.407 14.422v38.671h-4.576v-38.671c0-4.827-1.15-8.609-3.451-11.347-2.3-2.738-5.676-4.107-10.127-4.107-4.751 0-8.402 1.488-10.953 4.464-2.55 2.975-3.825 6.764-3.825 11.365v38.296h-4.576v-38.972c0-4.476-1.119-8.12-3.357-10.933-2.238-2.813-5.62-4.22-10.146-4.22-4.551 0-8.165 1.525-10.84 4.576-2.676 3.051-4.014 6.964-4.014 11.74v37.809h-4.576ZM391.545 194.038c-5.202 0-9.728-1.288-13.578-3.863-3.851-2.576-6.827-6.102-8.927-10.578-2.101-4.476-3.151-9.577-3.151-15.303 0-5.751 1.056-10.878 3.169-15.379 2.113-4.501 5.02-8.051 8.721-10.652 3.701-2.601 7.927-3.901 12.678-3.901 4.301 0 8.264 1.132 11.89 3.395 3.626 2.263 6.539 5.476 8.739 9.639 2.201 4.164 3.301 9.096 3.301 14.797v2.851h-43.96c.075 4.726.957 8.952 2.645 12.678 1.688 3.726 4.101 6.67 7.239 8.833 3.138 2.163 6.883 3.244 11.234 3.244 3.125 0 5.807-.531 8.045-1.594 2.238-1.062 4.082-2.356 5.533-3.882 1.45-1.525 2.525-3 3.225-4.426l4.164 1.688c-.875 1.926-2.232 3.851-4.07 5.776-1.838 1.926-4.163 3.52-6.976 4.783-2.814 1.262-6.121 1.894-9.921 1.894Zm-21.043-33.157h39.309c0-4.176-.85-7.94-2.55-11.29-1.701-3.351-4.014-6.014-6.939-7.99-2.926-1.975-6.214-2.963-9.865-2.963s-6.92.982-9.809 2.945c-2.888 1.962-5.226 4.626-7.014 7.989-1.788 3.363-2.831 7.133-3.132 11.309ZM430.178 192.838v-57.613h4.464v9.002h.412c1.25-2.951 3.363-5.32 6.339-7.108 2.976-1.788 6.364-2.682 10.165-2.682h1.219c.387 0 .756.013 1.106.038v4.613c-.3-.05-.656-.1-1.069-.15-.412-.05-.919-.075-1.519-.075-3.2 0-6.045.688-8.533 2.063-2.488 1.375-4.445 3.27-5.87 5.683-1.425 2.413-2.138 5.17-2.138 8.27v37.959h-4.576ZM490.154 135.225v4.088h-12.115v39.909c0 3.476.987 6.033 2.963 7.671 1.975 1.637 4.238 2.456 6.789 2.456.825 0 1.544-.068 2.157-.206.612-.137 1.194-.294 1.744-.469l1.125 4.164c-.7.25-1.469.468-2.307.656-.837.188-1.844.281-3.019.281-2.401 0-4.664-.537-6.789-1.613-2.126-1.075-3.857-2.631-5.195-4.669s-2.007-4.52-2.007-7.446v-40.734h-8.514v-4.088h8.514v-13.803h4.539v13.803h12.115ZM544.016 172.396v-37.171h4.576v57.613h-4.576v-9.34h-.375c-1.351 2.951-3.532 5.37-6.545 7.258-3.014 1.888-6.571 2.832-10.672 2.832-5.651 0-10.283-1.819-13.896-5.458-3.614-3.638-5.42-8.608-5.42-14.909v-37.996h4.576v37.808c0 4.801 1.462 8.683 4.388 11.647 2.926 2.963 6.689 4.444 11.29 4.444 3.001 0 5.764-.681 8.289-2.044 2.526-1.363 4.551-3.294 6.077-5.795 1.525-2.501 2.288-5.464 2.288-8.889Zm-24.531-47.373c-.95 0-1.788-.363-2.513-1.088-.725-.725-1.087-1.563-1.087-2.513 0-1.025.362-1.882 1.087-2.569.725-.688 1.563-1.032 2.513-1.032 1.026 0 1.882.344 2.57 1.032.687.687 1.031 1.544 1.031 2.569 0 .95-.344 1.788-1.031 2.513-.688.725-1.544 1.088-2.57 1.088Zm16.804 0c-.95 0-1.788-.363-2.513-1.088-.725-.725-1.088-1.563-1.088-2.513 0-1.025.363-1.882 1.088-2.569.725-.688 1.563-1.032 2.513-1.032 1.025 0 1.882.344 2.569 1.032.688.687 1.032 1.544 1.032 2.569 0 .95-.344 1.788-1.032 2.513-.687.725-1.544 1.088-2.569 1.088ZM567.571 116.021h4.576v76.817h-4.576z" style="fill:#002b36;fill-rule:nonzero" transform="translate(139.0514972 -12.06570547) scale(.72287)" />
	<use class="emblem" xlink:href="#reuse-0" style="fill:#002b36" transform="matrix(0 -1.3415 1.3415 0 -90.47983861 574.35066096)" />
	<use class="emblem" xlink:href="#reuse-0" style="fill:#002b36" transform="matrix(0 1.3415 -1.3415 0 329.487095 -374.34969824)" />
</svg>