<svg xmlns="http://www.w3.org/2000/svg" xml:space="preserve" style="fill-rule:evenodd;clip-rule:evenodd;stroke-linejoin:round;stroke-miterlimit:2" viewBox="0 0 400 300">
<path d="m338 136-22 44a17 17 0 0 0 15 25h45a17 17 0 0 0 15-25l-22-44a17 17 0 0 0-31 0Zm4 2a13 13 0 0 1 23 0l22 44a13 13 0 0 1-11 19h-45a13 13 0 0 1-11-19l22-44Z" class="icon" style="fill:#fff" transform="rotate(-90 489 788) scale(3.18767)"/>
<path d="m338 136-22 44a17 17 0 0 0 15 25h45a17 17 0 0 0 15-25l-22-44a17 17 0 0 0-31 0Zm4 2a13 13 0 0 1 23 0l22 44a13 13 0 0 1-11 19h-45a13 13 0 0 1-11-19l22-44Z" class="icon" style="fill:#fff" transform="rotate(90 838 -139) scale(3.18767)"/>
</svg>
